%TF.GenerationSoftware,KiCad,Pcbnew,8.0.7*%
%TF.CreationDate,2025-03-16T23:49:03-07:00*%
%TF.ProjectId,RelaySwitchCompact,52656c61-7953-4776-9974-6368436f6d70,rev?*%
%TF.SameCoordinates,Original*%
%TF.FileFunction,Copper,L2,Bot*%
%TF.FilePolarity,Positive*%
%FSLAX46Y46*%
G04 Gerber Fmt 4.6, Leading zero omitted, Abs format (unit mm)*
G04 Created by KiCad (PCBNEW 8.0.7) date 2025-03-16 23:49:03*
%MOMM*%
%LPD*%
G01*
G04 APERTURE LIST*
G04 Aperture macros list*
%AMRoundRect*
0 Rectangle with rounded corners*
0 $1 Rounding radius*
0 $2 $3 $4 $5 $6 $7 $8 $9 X,Y pos of 4 corners*
0 Add a 4 corners polygon primitive as box body*
4,1,4,$2,$3,$4,$5,$6,$7,$8,$9,$2,$3,0*
0 Add four circle primitives for the rounded corners*
1,1,$1+$1,$2,$3*
1,1,$1+$1,$4,$5*
1,1,$1+$1,$6,$7*
1,1,$1+$1,$8,$9*
0 Add four rect primitives between the rounded corners*
20,1,$1+$1,$2,$3,$4,$5,0*
20,1,$1+$1,$4,$5,$6,$7,0*
20,1,$1+$1,$6,$7,$8,$9,0*
20,1,$1+$1,$8,$9,$2,$3,0*%
G04 Aperture macros list end*
%TA.AperFunction,SMDPad,CuDef*%
%ADD10RoundRect,0.160000X-0.160000X0.222500X-0.160000X-0.222500X0.160000X-0.222500X0.160000X0.222500X0*%
%TD*%
%TA.AperFunction,ComponentPad*%
%ADD11R,1.950000X1.950000*%
%TD*%
%TA.AperFunction,ComponentPad*%
%ADD12C,1.950000*%
%TD*%
%TA.AperFunction,ComponentPad*%
%ADD13R,1.700000X1.700000*%
%TD*%
%TA.AperFunction,ComponentPad*%
%ADD14O,1.700000X1.700000*%
%TD*%
%TA.AperFunction,SMDPad,CuDef*%
%ADD15R,1.000000X0.800000*%
%TD*%
%TA.AperFunction,SMDPad,CuDef*%
%ADD16R,1.630000X2.561400*%
%TD*%
%TA.AperFunction,SMDPad,CuDef*%
%ADD17R,0.560000X0.600000*%
%TD*%
%TA.AperFunction,SMDPad,CuDef*%
%ADD18R,1.020000X1.040000*%
%TD*%
%TA.AperFunction,SMDPad,CuDef*%
%ADD19R,0.940000X1.020000*%
%TD*%
%TA.AperFunction,SMDPad,CuDef*%
%ADD20R,0.930000X0.790000*%
%TD*%
%TA.AperFunction,SMDPad,CuDef*%
%ADD21R,1.440000X2.090000*%
%TD*%
%TA.AperFunction,ComponentPad*%
%ADD22C,7.400000*%
%TD*%
%TA.AperFunction,ViaPad*%
%ADD23C,0.500000*%
%TD*%
%TA.AperFunction,ViaPad*%
%ADD24C,0.600000*%
%TD*%
%TA.AperFunction,Conductor*%
%ADD25C,0.850000*%
%TD*%
%TA.AperFunction,Conductor*%
%ADD26C,0.200000*%
%TD*%
G04 APERTURE END LIST*
D10*
%TO.P,F1,1*%
%TO.N,Net-(F1-Pad1)*%
X155516558Y-97088046D03*
%TO.P,F1,2*%
%TO.N,/RelayIn*%
X155516558Y-98233046D03*
%TD*%
D11*
%TO.P,K1,1*%
%TO.N,Net-(U2-C)*%
X170500000Y-97400000D03*
D12*
%TO.P,K1,2*%
%TO.N,/RelayOut*%
X172500000Y-103400000D03*
%TO.P,K1,3*%
%TO.N,+5V*%
X170500000Y-109400000D03*
%TO.P,K1,4*%
%TO.N,GND*%
X158300000Y-109400000D03*
%TO.P,K1,5*%
%TO.N,Net-(F1-Pad1)*%
X158300000Y-97400000D03*
%TD*%
D13*
%TO.P,J1,1,Pin_1*%
%TO.N,/RelayIn*%
X152300000Y-98260000D03*
D14*
%TO.P,J1,2,Pin_2*%
%TO.N,+5V*%
X152300000Y-100800000D03*
%TO.P,J1,3,Pin_3*%
%TO.N,/GPIO*%
X152300000Y-103340000D03*
%TO.P,J1,4,Pin_4*%
%TO.N,GND*%
X152300000Y-105880000D03*
%TO.P,J1,5,Pin_5*%
%TO.N,/RelayOut*%
X152300000Y-108420000D03*
%TD*%
D15*
%TO.P,U2,1,C*%
%TO.N,Net-(U2-C)*%
X169100000Y-99650000D03*
%TO.P,U2,2,B*%
%TO.N,Net-(U2-B)*%
X169100000Y-101550000D03*
%TO.P,U2,3,E*%
%TO.N,GND*%
X166700000Y-100600000D03*
%TD*%
D16*
%TO.P,D1,1*%
%TO.N,+5V*%
X175300000Y-105268300D03*
%TO.P,D1,2*%
%TO.N,Net-(U2-C)*%
X175300000Y-101731700D03*
%TD*%
D17*
%TO.P,R4,1*%
%TO.N,Net-(LED2-PadA)*%
X164735000Y-109600000D03*
%TO.P,R4,2*%
%TO.N,/GPIO*%
X163865000Y-109600000D03*
%TD*%
D18*
%TO.P,R1,1*%
%TO.N,Net-(LED1-A)*%
X173300000Y-107965000D03*
%TO.P,R1,2*%
%TO.N,+5V*%
X173300000Y-109435000D03*
%TD*%
D19*
%TO.P,R2,1*%
%TO.N,Net-(R2-Pad1)*%
X166710000Y-97600000D03*
%TO.P,R2,2*%
%TO.N,Net-(U2-B)*%
X168290000Y-97600000D03*
%TD*%
D20*
%TO.P,R3,1*%
%TO.N,GND*%
X166700000Y-105120000D03*
%TO.P,R3,2*%
%TO.N,Net-(R3-Pad2)*%
X166700000Y-103480000D03*
%TD*%
D21*
%TO.P,U1,1*%
%TO.N,/GPIO*%
X163870000Y-106740000D03*
%TO.P,U1,2*%
%TO.N,Net-(R3-Pad2)*%
X161330000Y-106740000D03*
%TO.P,U1,3*%
%TO.N,Net-(R2-Pad1)*%
X161330000Y-97660000D03*
%TO.P,U1,4*%
%TO.N,+5V*%
X163870000Y-97660000D03*
%TD*%
D22*
%TO.P,H1,1,1*%
%TO.N,GND*%
X181260000Y-103500000D03*
%TD*%
D23*
%TO.N,GND*%
X165500000Y-99300000D03*
X165500000Y-101200000D03*
X165500000Y-97500000D03*
X165500000Y-107300000D03*
X165500000Y-105100000D03*
X168100000Y-105100000D03*
D24*
%TO.N,Net-(LED1-A)*%
X174600000Y-107965000D03*
%TO.N,Net-(LED2-PadA)*%
X170300000Y-105300000D03*
%TD*%
D25*
%TO.N,/RelayIn*%
X155069454Y-98233046D02*
X155042500Y-98260000D01*
X155042500Y-98260000D02*
X152300000Y-98260000D01*
%TO.N,Net-(F1-Pad1)*%
X156214454Y-97088046D02*
X156526408Y-97400000D01*
X156526408Y-97400000D02*
X158300000Y-97400000D01*
X156214454Y-97088046D02*
X155516558Y-97088046D01*
%TO.N,/RelayIn*%
X155069454Y-98233046D02*
X155516558Y-98233046D01*
D26*
%TO.N,Net-(U2-C)*%
X170150000Y-99650000D02*
X170500000Y-99300000D01*
X170150000Y-99650000D02*
X172231700Y-101731700D01*
X169100000Y-99650000D02*
X170150000Y-99650000D01*
X172231700Y-101731700D02*
X175300000Y-101731700D01*
X170500000Y-99300000D02*
X170500000Y-97400000D01*
%TO.N,/GPIO*%
X163870000Y-106970000D02*
X163865000Y-106975000D01*
X152300000Y-103340000D02*
X154840000Y-103340000D01*
X154840000Y-103340000D02*
X161100000Y-109600000D01*
X161100000Y-109600000D02*
X163865000Y-109600000D01*
X163865000Y-106975000D02*
X163865000Y-109600000D01*
X163870000Y-106740000D02*
X163870000Y-106970000D01*
%TO.N,Net-(U2-B)*%
X168290000Y-97600000D02*
X168290000Y-98510000D01*
X167900000Y-98900000D02*
X167900000Y-101200000D01*
X168250000Y-101550000D02*
X169100000Y-101550000D01*
X168290000Y-98510000D02*
X167900000Y-98900000D01*
X167900000Y-101200000D02*
X168250000Y-101550000D01*
%TO.N,Net-(R3-Pad2)*%
X161330000Y-106740000D02*
X161330000Y-104170000D01*
X162320000Y-103480000D02*
X166700000Y-103480000D01*
X166770000Y-103480000D02*
X166700000Y-103480000D01*
X162300000Y-103500000D02*
X162320000Y-103480000D01*
X162000000Y-103500000D02*
X162300000Y-103500000D01*
X161330000Y-104170000D02*
X162000000Y-103500000D01*
%TO.N,+5V*%
X170500000Y-104500000D02*
X171268300Y-105268300D01*
X170500000Y-106036600D02*
X170500000Y-109400000D01*
X170650000Y-109450000D02*
X170500000Y-109450000D01*
X173300000Y-109435000D02*
X170535000Y-109435000D01*
X171268300Y-105268300D02*
X170500000Y-106036600D01*
X152300000Y-100800000D02*
X163100000Y-100800000D01*
X171268300Y-105268300D02*
X175300000Y-105268300D01*
X170535000Y-109435000D02*
X170500000Y-109400000D01*
X163100000Y-100800000D02*
X164800000Y-102500000D01*
X163100000Y-100800000D02*
X163870000Y-100030000D01*
X168500000Y-102500000D02*
X170500000Y-104500000D01*
X163870000Y-100030000D02*
X163870000Y-97660000D01*
X164800000Y-102500000D02*
X168500000Y-102500000D01*
%TO.N,Net-(LED1-A)*%
X174600000Y-107965000D02*
X173300000Y-107965000D01*
%TO.N,Net-(LED2-PadA)*%
X166000000Y-109600000D02*
X170300000Y-105300000D01*
X164735000Y-109600000D02*
X166000000Y-109600000D01*
%TO.N,Net-(R2-Pad1)*%
X166400000Y-96100000D02*
X166710000Y-96410000D01*
X161600000Y-96100000D02*
X166400000Y-96100000D01*
X161330000Y-97660000D02*
X161330000Y-96370000D01*
X161330000Y-96370000D02*
X161600000Y-96100000D01*
X166710000Y-96410000D02*
X166710000Y-97600000D01*
%TO.N,Net-(F1-Pad1)*%
X157813500Y-96963500D02*
X158300000Y-97450000D01*
%TD*%
%TA.AperFunction,Conductor*%
%TO.N,GND*%
G36*
X161117941Y-95520185D02*
G01*
X161163696Y-95572989D01*
X161173640Y-95642147D01*
X161144615Y-95705703D01*
X161138583Y-95712181D01*
X160849481Y-96001282D01*
X160849477Y-96001287D01*
X160819910Y-96052500D01*
X160769343Y-96100716D01*
X160712524Y-96114500D01*
X160562130Y-96114500D01*
X160562123Y-96114501D01*
X160502516Y-96120908D01*
X160367671Y-96171202D01*
X160367664Y-96171206D01*
X160252455Y-96257452D01*
X160252452Y-96257455D01*
X160166206Y-96372664D01*
X160166202Y-96372671D01*
X160115908Y-96507517D01*
X160109501Y-96567116D01*
X160109500Y-96567135D01*
X160109500Y-98752870D01*
X160109501Y-98752876D01*
X160115908Y-98812483D01*
X160166202Y-98947328D01*
X160166206Y-98947335D01*
X160252452Y-99062544D01*
X160252455Y-99062547D01*
X160367664Y-99148793D01*
X160367671Y-99148797D01*
X160502517Y-99199091D01*
X160502516Y-99199091D01*
X160509444Y-99199835D01*
X160562127Y-99205500D01*
X162097872Y-99205499D01*
X162157483Y-99199091D01*
X162292331Y-99148796D01*
X162407546Y-99062546D01*
X162454743Y-98999499D01*
X162499112Y-98940231D01*
X162501382Y-98941930D01*
X162540565Y-98902743D01*
X162608837Y-98887886D01*
X162674303Y-98912298D01*
X162699443Y-98941311D01*
X162700888Y-98940231D01*
X162792452Y-99062544D01*
X162792455Y-99062547D01*
X162907664Y-99148793D01*
X162907671Y-99148797D01*
X162933810Y-99158546D01*
X163042517Y-99199091D01*
X163102127Y-99205500D01*
X163145499Y-99205499D01*
X163212537Y-99225182D01*
X163258293Y-99277985D01*
X163269500Y-99329499D01*
X163269500Y-99729903D01*
X163249815Y-99796942D01*
X163233181Y-99817584D01*
X162887584Y-100163181D01*
X162826261Y-100196666D01*
X162799903Y-100199500D01*
X153589091Y-100199500D01*
X153522052Y-100179815D01*
X153476711Y-100127909D01*
X153474037Y-100122175D01*
X153474034Y-100122170D01*
X153474033Y-100122169D01*
X153338495Y-99928599D01*
X153216567Y-99806671D01*
X153183084Y-99745351D01*
X153188068Y-99675659D01*
X153229939Y-99619725D01*
X153260915Y-99602810D01*
X153392331Y-99553796D01*
X153507546Y-99467546D01*
X153593796Y-99352331D01*
X153607651Y-99315185D01*
X153625934Y-99266166D01*
X153667806Y-99210233D01*
X153733270Y-99185816D01*
X153742116Y-99185500D01*
X155133656Y-99185500D01*
X155257178Y-99160929D01*
X155281370Y-99158546D01*
X155607714Y-99158546D01*
X155728003Y-99134618D01*
X155786516Y-99122979D01*
X155877565Y-99085264D01*
X155888094Y-99081452D01*
X155949627Y-99062279D01*
X156070748Y-98989059D01*
X156086887Y-98979303D01*
X156086888Y-98979302D01*
X156086887Y-98979302D01*
X156086893Y-98979299D01*
X156200311Y-98865881D01*
X156204343Y-98859210D01*
X156222775Y-98835682D01*
X156235441Y-98823018D01*
X156235446Y-98823011D01*
X156336724Y-98671437D01*
X156336726Y-98671433D01*
X156385452Y-98553796D01*
X156406491Y-98503004D01*
X156414849Y-98460981D01*
X156421946Y-98425310D01*
X156454331Y-98363399D01*
X156515047Y-98328824D01*
X156543563Y-98325501D01*
X156623676Y-98325501D01*
X156623696Y-98325500D01*
X157092083Y-98325500D01*
X157159122Y-98345185D01*
X157183312Y-98365517D01*
X157297242Y-98489277D01*
X157297252Y-98489286D01*
X157490208Y-98639470D01*
X157490212Y-98639473D01*
X157662197Y-98732547D01*
X157705267Y-98755855D01*
X157705270Y-98755856D01*
X157936541Y-98835251D01*
X157936543Y-98835251D01*
X157936545Y-98835252D01*
X158177737Y-98875500D01*
X158177738Y-98875500D01*
X158422262Y-98875500D01*
X158422263Y-98875500D01*
X158663455Y-98835252D01*
X158894733Y-98755855D01*
X159109788Y-98639473D01*
X159302754Y-98489281D01*
X159468368Y-98309377D01*
X159602111Y-98104667D01*
X159700336Y-97880736D01*
X159760364Y-97643692D01*
X159780557Y-97400000D01*
X159777419Y-97362135D01*
X159760365Y-97156316D01*
X159760363Y-97156304D01*
X159731449Y-97042127D01*
X159700336Y-96919264D01*
X159602111Y-96695333D01*
X159542763Y-96604493D01*
X159468367Y-96490621D01*
X159302757Y-96310722D01*
X159302747Y-96310713D01*
X159109791Y-96160529D01*
X159109787Y-96160526D01*
X158894734Y-96044145D01*
X158894729Y-96044143D01*
X158663458Y-95964748D01*
X158452094Y-95929478D01*
X158422263Y-95924500D01*
X158177737Y-95924500D01*
X158147906Y-95929478D01*
X157936541Y-95964748D01*
X157705270Y-96044143D01*
X157705265Y-96044145D01*
X157490212Y-96160526D01*
X157490208Y-96160529D01*
X157297252Y-96310713D01*
X157297242Y-96310722D01*
X157183312Y-96434483D01*
X157123425Y-96470474D01*
X157092083Y-96474500D01*
X156961125Y-96474500D01*
X156894086Y-96454815D01*
X156873448Y-96438185D01*
X156804426Y-96369163D01*
X156804425Y-96369162D01*
X156804423Y-96369160D01*
X156804421Y-96369159D01*
X156652845Y-96267879D01*
X156652841Y-96267877D01*
X156484416Y-96198114D01*
X156484406Y-96198111D01*
X156305610Y-96162546D01*
X156305608Y-96162546D01*
X155425404Y-96162546D01*
X155425402Y-96162546D01*
X155246601Y-96198112D01*
X155246594Y-96198114D01*
X155155560Y-96235820D01*
X155145003Y-96239643D01*
X155083489Y-96258812D01*
X155083487Y-96258813D01*
X154946228Y-96341788D01*
X154946223Y-96341792D01*
X154832807Y-96455208D01*
X154832803Y-96455213D01*
X154828770Y-96461885D01*
X154810341Y-96485406D01*
X154805880Y-96489867D01*
X154797674Y-96498074D01*
X154797674Y-96498075D01*
X154696389Y-96649659D01*
X154626626Y-96818083D01*
X154626623Y-96818093D01*
X154591058Y-96996889D01*
X154591058Y-96996892D01*
X154591058Y-97179200D01*
X154591058Y-97179202D01*
X154591057Y-97179202D01*
X154592472Y-97186312D01*
X154586243Y-97255904D01*
X154543378Y-97311080D01*
X154477488Y-97334322D01*
X154470854Y-97334500D01*
X153742115Y-97334500D01*
X153675076Y-97314815D01*
X153629321Y-97262011D01*
X153625933Y-97253833D01*
X153593797Y-97167671D01*
X153593793Y-97167664D01*
X153507547Y-97052455D01*
X153507544Y-97052452D01*
X153392335Y-96966206D01*
X153392328Y-96966202D01*
X153257482Y-96915908D01*
X153257483Y-96915908D01*
X153197883Y-96909501D01*
X153197881Y-96909500D01*
X153197873Y-96909500D01*
X153197864Y-96909500D01*
X151402129Y-96909500D01*
X151402123Y-96909501D01*
X151342516Y-96915908D01*
X151207671Y-96966202D01*
X151207664Y-96966206D01*
X151092455Y-97052452D01*
X151092452Y-97052455D01*
X151006206Y-97167664D01*
X151006202Y-97167671D01*
X150955908Y-97302517D01*
X150949501Y-97362116D01*
X150949500Y-97362135D01*
X150949500Y-99157870D01*
X150949501Y-99157876D01*
X150955908Y-99217483D01*
X151006202Y-99352328D01*
X151006206Y-99352335D01*
X151092452Y-99467544D01*
X151092455Y-99467547D01*
X151207664Y-99553793D01*
X151207671Y-99553797D01*
X151339081Y-99602810D01*
X151395015Y-99644681D01*
X151419432Y-99710145D01*
X151404580Y-99778418D01*
X151383430Y-99806673D01*
X151261503Y-99928600D01*
X151125965Y-100122169D01*
X151125964Y-100122171D01*
X151026098Y-100336335D01*
X151026094Y-100336344D01*
X150964938Y-100564586D01*
X150964936Y-100564596D01*
X150944341Y-100799999D01*
X150944341Y-100800000D01*
X150964936Y-101035403D01*
X150964938Y-101035413D01*
X151026094Y-101263655D01*
X151026096Y-101263659D01*
X151026097Y-101263663D01*
X151098839Y-101419658D01*
X151125965Y-101477830D01*
X151125967Y-101477834D01*
X151261501Y-101671395D01*
X151261506Y-101671402D01*
X151428597Y-101838493D01*
X151428603Y-101838498D01*
X151614158Y-101968425D01*
X151657783Y-102023002D01*
X151664977Y-102092500D01*
X151633454Y-102154855D01*
X151614158Y-102171575D01*
X151428597Y-102301505D01*
X151261505Y-102468597D01*
X151125965Y-102662169D01*
X151125964Y-102662171D01*
X151026098Y-102876335D01*
X151026094Y-102876344D01*
X150964938Y-103104586D01*
X150964936Y-103104596D01*
X150944341Y-103339999D01*
X150944341Y-103340000D01*
X150964936Y-103575403D01*
X150964938Y-103575413D01*
X151026094Y-103803655D01*
X151026096Y-103803659D01*
X151026097Y-103803663D01*
X151098839Y-103959658D01*
X151125965Y-104017830D01*
X151125967Y-104017834D01*
X151261501Y-104211395D01*
X151261506Y-104211402D01*
X151428597Y-104378493D01*
X151428603Y-104378498D01*
X151486068Y-104418735D01*
X151577720Y-104482911D01*
X151614594Y-104508730D01*
X151658219Y-104563307D01*
X151665413Y-104632805D01*
X151633890Y-104695160D01*
X151614595Y-104711880D01*
X151428922Y-104841890D01*
X151428920Y-104841891D01*
X151261891Y-105008920D01*
X151261886Y-105008926D01*
X151126400Y-105202420D01*
X151126399Y-105202422D01*
X151026570Y-105416507D01*
X151026567Y-105416513D01*
X150969364Y-105629999D01*
X150969364Y-105630000D01*
X151866988Y-105630000D01*
X151834075Y-105687007D01*
X151800000Y-105814174D01*
X151800000Y-105945826D01*
X151834075Y-106072993D01*
X151866988Y-106130000D01*
X150969364Y-106130000D01*
X151026567Y-106343486D01*
X151026570Y-106343492D01*
X151126399Y-106557578D01*
X151261894Y-106751082D01*
X151428917Y-106918105D01*
X151614595Y-107048119D01*
X151658219Y-107102696D01*
X151665412Y-107172195D01*
X151633890Y-107234549D01*
X151614595Y-107251269D01*
X151428594Y-107381508D01*
X151261505Y-107548597D01*
X151125965Y-107742169D01*
X151125964Y-107742171D01*
X151026098Y-107956335D01*
X151026094Y-107956344D01*
X150964938Y-108184586D01*
X150964936Y-108184596D01*
X150944341Y-108419999D01*
X150944341Y-108420000D01*
X150964936Y-108655403D01*
X150964938Y-108655413D01*
X151026094Y-108883655D01*
X151026096Y-108883659D01*
X151026097Y-108883663D01*
X151080113Y-108999500D01*
X151125965Y-109097830D01*
X151125967Y-109097834D01*
X151204789Y-109210402D01*
X151261505Y-109291401D01*
X151428599Y-109458495D01*
X151525384Y-109526265D01*
X151622165Y-109594032D01*
X151622167Y-109594033D01*
X151622170Y-109594035D01*
X151836337Y-109693903D01*
X152064592Y-109755063D01*
X152252918Y-109771539D01*
X152299999Y-109775659D01*
X152300000Y-109775659D01*
X152300001Y-109775659D01*
X152339234Y-109772226D01*
X152535408Y-109755063D01*
X152763663Y-109693903D01*
X152977830Y-109594035D01*
X153171401Y-109458495D01*
X153338495Y-109291401D01*
X153474035Y-109097830D01*
X153573903Y-108883663D01*
X153635063Y-108655408D01*
X153655659Y-108420000D01*
X153635063Y-108184592D01*
X153573903Y-107956337D01*
X153474035Y-107742171D01*
X153433874Y-107684814D01*
X153338494Y-107548597D01*
X153171402Y-107381506D01*
X153171401Y-107381505D01*
X152985405Y-107251269D01*
X152941781Y-107196692D01*
X152934588Y-107127193D01*
X152966110Y-107064839D01*
X152985405Y-107048119D01*
X153171082Y-106918105D01*
X153338105Y-106751082D01*
X153473600Y-106557578D01*
X153573429Y-106343492D01*
X153573432Y-106343486D01*
X153630636Y-106130000D01*
X152733012Y-106130000D01*
X152765925Y-106072993D01*
X152800000Y-105945826D01*
X152800000Y-105814174D01*
X152765925Y-105687007D01*
X152733012Y-105630000D01*
X153630636Y-105630000D01*
X153630635Y-105629999D01*
X153573432Y-105416513D01*
X153573429Y-105416507D01*
X153473600Y-105202422D01*
X153473599Y-105202420D01*
X153338113Y-105008926D01*
X153338108Y-105008920D01*
X153171078Y-104841890D01*
X152985405Y-104711879D01*
X152941780Y-104657302D01*
X152934588Y-104587804D01*
X152966110Y-104525449D01*
X152985406Y-104508730D01*
X153013182Y-104489281D01*
X153171401Y-104378495D01*
X153338495Y-104211401D01*
X153474035Y-104017830D01*
X153476707Y-104012097D01*
X153522878Y-103959658D01*
X153589091Y-103940500D01*
X154539903Y-103940500D01*
X154606942Y-103960185D01*
X154627584Y-103976819D01*
X158364084Y-107713319D01*
X158397569Y-107774642D01*
X158392585Y-107844334D01*
X158350713Y-107900267D01*
X158285249Y-107924684D01*
X158276403Y-107925000D01*
X158177779Y-107925000D01*
X157936664Y-107965234D01*
X157705476Y-108044602D01*
X157705468Y-108044605D01*
X157490484Y-108160949D01*
X157490478Y-108160953D01*
X157447758Y-108194203D01*
X157447758Y-108194205D01*
X158052511Y-108798958D01*
X157992110Y-108823978D01*
X157885649Y-108895112D01*
X157795112Y-108985649D01*
X157723978Y-109092110D01*
X157698958Y-109152511D01*
X157094626Y-108548178D01*
X156998329Y-108695572D01*
X156900138Y-108919426D01*
X156840130Y-109156394D01*
X156819945Y-109399994D01*
X156819945Y-109400005D01*
X156840130Y-109643605D01*
X156900138Y-109880573D01*
X156998328Y-110104424D01*
X157094626Y-110251820D01*
X157698958Y-109647488D01*
X157723978Y-109707890D01*
X157795112Y-109814351D01*
X157885649Y-109904888D01*
X157992110Y-109976022D01*
X158052510Y-110001041D01*
X157447757Y-110605793D01*
X157447758Y-110605794D01*
X157490485Y-110639050D01*
X157490485Y-110639051D01*
X157705468Y-110755394D01*
X157705476Y-110755397D01*
X157936664Y-110834765D01*
X158177779Y-110875000D01*
X158422221Y-110875000D01*
X158663335Y-110834765D01*
X158894523Y-110755397D01*
X158894531Y-110755394D01*
X159109515Y-110639050D01*
X159109516Y-110639048D01*
X159152240Y-110605794D01*
X159152241Y-110605793D01*
X158547488Y-110001041D01*
X158607890Y-109976022D01*
X158714351Y-109904888D01*
X158804888Y-109814351D01*
X158876022Y-109707890D01*
X158901041Y-109647488D01*
X159505372Y-110251820D01*
X159601669Y-110104429D01*
X159699861Y-109880573D01*
X159759868Y-109643611D01*
X159778677Y-109416612D01*
X159803831Y-109351427D01*
X159860232Y-109310188D01*
X159929976Y-109305990D01*
X159989935Y-109339170D01*
X160615139Y-109964374D01*
X160615149Y-109964385D01*
X160619479Y-109968715D01*
X160619480Y-109968716D01*
X160731284Y-110080520D01*
X160773109Y-110104667D01*
X160818095Y-110130639D01*
X160818097Y-110130641D01*
X160856151Y-110152611D01*
X160868215Y-110159577D01*
X161020943Y-110200501D01*
X161020946Y-110200501D01*
X161186653Y-110200501D01*
X161186669Y-110200500D01*
X163122680Y-110200500D01*
X163189719Y-110220185D01*
X163221948Y-110250191D01*
X163227454Y-110257546D01*
X163227457Y-110257548D01*
X163342664Y-110343793D01*
X163342671Y-110343797D01*
X163387618Y-110360561D01*
X163477517Y-110394091D01*
X163537127Y-110400500D01*
X164192872Y-110400499D01*
X164252483Y-110394091D01*
X164256663Y-110392531D01*
X164326352Y-110387545D01*
X164343323Y-110392526D01*
X164347517Y-110394091D01*
X164407127Y-110400500D01*
X165062872Y-110400499D01*
X165122483Y-110394091D01*
X165257331Y-110343796D01*
X165372546Y-110257546D01*
X165378052Y-110250191D01*
X165433985Y-110208319D01*
X165477320Y-110200500D01*
X165913331Y-110200500D01*
X165913347Y-110200501D01*
X165920943Y-110200501D01*
X166079054Y-110200501D01*
X166079057Y-110200501D01*
X166231785Y-110159577D01*
X166281904Y-110130639D01*
X166368716Y-110080520D01*
X166480520Y-109968716D01*
X166480520Y-109968714D01*
X166490728Y-109958507D01*
X166490729Y-109958504D01*
X169687821Y-106761413D01*
X169749142Y-106727930D01*
X169818834Y-106732914D01*
X169874767Y-106774786D01*
X169899184Y-106840250D01*
X169899500Y-106849096D01*
X169899500Y-107973376D01*
X169879815Y-108040415D01*
X169834519Y-108082430D01*
X169690217Y-108160523D01*
X169690208Y-108160529D01*
X169497252Y-108310713D01*
X169497242Y-108310722D01*
X169331632Y-108490621D01*
X169197888Y-108695333D01*
X169099663Y-108919265D01*
X169039636Y-109156304D01*
X169039634Y-109156316D01*
X169019443Y-109399994D01*
X169019443Y-109400005D01*
X169039634Y-109643683D01*
X169039636Y-109643695D01*
X169099663Y-109880734D01*
X169197888Y-110104666D01*
X169331632Y-110309378D01*
X169497242Y-110489277D01*
X169497252Y-110489286D01*
X169689670Y-110639051D01*
X169690212Y-110639473D01*
X169905267Y-110755855D01*
X169905270Y-110755856D01*
X170136541Y-110835251D01*
X170136543Y-110835251D01*
X170136545Y-110835252D01*
X170377737Y-110875500D01*
X170377738Y-110875500D01*
X170622262Y-110875500D01*
X170622263Y-110875500D01*
X170863455Y-110835252D01*
X171094733Y-110755855D01*
X171309788Y-110639473D01*
X171502754Y-110489281D01*
X171668368Y-110309377D01*
X171802111Y-110104667D01*
X171802112Y-110104662D01*
X171804373Y-110100487D01*
X171853590Y-110050895D01*
X171913430Y-110035500D01*
X172199750Y-110035500D01*
X172266789Y-110055185D01*
X172312544Y-110107989D01*
X172315932Y-110116168D01*
X172346201Y-110197326D01*
X172346206Y-110197335D01*
X172432452Y-110312544D01*
X172432455Y-110312547D01*
X172547664Y-110398793D01*
X172547671Y-110398797D01*
X172682517Y-110449091D01*
X172682516Y-110449091D01*
X172689444Y-110449835D01*
X172742127Y-110455500D01*
X173857872Y-110455499D01*
X173917483Y-110449091D01*
X174052331Y-110398796D01*
X174167546Y-110312546D01*
X174253796Y-110197331D01*
X174304091Y-110062483D01*
X174310500Y-110002873D01*
X174310499Y-108876701D01*
X174330184Y-108809663D01*
X174382987Y-108763908D01*
X174448383Y-108753482D01*
X174599997Y-108770565D01*
X174600000Y-108770565D01*
X174600004Y-108770565D01*
X174779249Y-108750369D01*
X174779252Y-108750368D01*
X174779255Y-108750368D01*
X174949522Y-108690789D01*
X175102262Y-108594816D01*
X175229816Y-108467262D01*
X175325789Y-108314522D01*
X175385368Y-108144255D01*
X175385369Y-108144249D01*
X175405565Y-107965003D01*
X175405565Y-107964996D01*
X175385369Y-107785750D01*
X175385368Y-107785745D01*
X175325788Y-107615476D01*
X175229815Y-107462737D01*
X175102262Y-107335184D01*
X175012039Y-107278493D01*
X174965748Y-107226158D01*
X174955100Y-107157104D01*
X174983475Y-107093256D01*
X175041865Y-107054884D01*
X175078006Y-107049499D01*
X176162872Y-107049499D01*
X176222483Y-107043091D01*
X176357331Y-106992796D01*
X176472546Y-106906546D01*
X176558796Y-106791331D01*
X176609091Y-106656483D01*
X176615500Y-106596873D01*
X176615499Y-103939728D01*
X176609091Y-103880117D01*
X176599183Y-103853553D01*
X176558797Y-103745271D01*
X176558793Y-103745264D01*
X176507123Y-103676243D01*
X176472546Y-103630054D01*
X176431417Y-103599265D01*
X176389548Y-103543333D01*
X176386449Y-103500000D01*
X177054935Y-103500000D01*
X177075185Y-103912176D01*
X177135735Y-104320373D01*
X177236007Y-104720676D01*
X177375019Y-105109189D01*
X177375027Y-105109209D01*
X177551466Y-105482257D01*
X177763614Y-105836206D01*
X178009441Y-106167664D01*
X178118478Y-106287967D01*
X179787060Y-104619384D01*
X179866112Y-104722407D01*
X180037593Y-104893888D01*
X180140613Y-104972938D01*
X178472031Y-106641520D01*
X178592335Y-106750558D01*
X178923793Y-106996385D01*
X179277742Y-107208533D01*
X179650790Y-107384972D01*
X179650810Y-107384980D01*
X180039323Y-107523992D01*
X180439626Y-107624264D01*
X180847823Y-107684814D01*
X181260000Y-107705064D01*
X181672176Y-107684814D01*
X182080373Y-107624264D01*
X182480676Y-107523992D01*
X182869189Y-107384980D01*
X182869209Y-107384972D01*
X183242257Y-107208533D01*
X183596206Y-106996385D01*
X183927670Y-106750554D01*
X184047967Y-106641521D01*
X184047967Y-106641519D01*
X182379385Y-104972938D01*
X182482407Y-104893888D01*
X182653888Y-104722407D01*
X182732938Y-104619385D01*
X184401519Y-106287967D01*
X184401521Y-106287967D01*
X184510554Y-106167670D01*
X184756385Y-105836206D01*
X184968533Y-105482257D01*
X185144972Y-105109209D01*
X185144980Y-105109189D01*
X185283992Y-104720676D01*
X185384264Y-104320373D01*
X185444814Y-103912176D01*
X185465064Y-103500000D01*
X185444814Y-103087823D01*
X185384264Y-102679626D01*
X185283992Y-102279323D01*
X185144980Y-101890810D01*
X185144972Y-101890790D01*
X184968533Y-101517742D01*
X184756385Y-101163793D01*
X184510558Y-100832335D01*
X184401520Y-100712031D01*
X182732938Y-102380613D01*
X182653888Y-102277593D01*
X182482407Y-102106112D01*
X182379384Y-102027060D01*
X184047967Y-100358478D01*
X183927664Y-100249441D01*
X183596206Y-100003614D01*
X183242257Y-99791466D01*
X182869209Y-99615027D01*
X182869189Y-99615019D01*
X182480676Y-99476007D01*
X182080373Y-99375735D01*
X181672176Y-99315185D01*
X181260000Y-99294935D01*
X180847823Y-99315185D01*
X180439626Y-99375735D01*
X180039323Y-99476007D01*
X179650810Y-99615019D01*
X179650790Y-99615027D01*
X179277742Y-99791466D01*
X178923793Y-100003614D01*
X178592329Y-100249445D01*
X178472031Y-100358477D01*
X178472031Y-100358478D01*
X180140614Y-102027061D01*
X180037593Y-102106112D01*
X179866112Y-102277593D01*
X179787061Y-102380614D01*
X178118478Y-100712031D01*
X178118477Y-100712031D01*
X178009445Y-100832329D01*
X177763614Y-101163793D01*
X177551466Y-101517742D01*
X177375027Y-101890790D01*
X177375019Y-101890810D01*
X177236007Y-102279323D01*
X177135735Y-102679626D01*
X177075185Y-103087823D01*
X177054935Y-103500000D01*
X176386449Y-103500000D01*
X176384564Y-103473641D01*
X176418049Y-103412318D01*
X176431413Y-103400738D01*
X176472546Y-103369946D01*
X176558796Y-103254731D01*
X176609091Y-103119883D01*
X176615500Y-103060273D01*
X176615499Y-100403128D01*
X176609091Y-100343517D01*
X176606412Y-100336335D01*
X176558797Y-100208671D01*
X176558793Y-100208664D01*
X176472547Y-100093455D01*
X176472544Y-100093452D01*
X176357335Y-100007206D01*
X176357328Y-100007202D01*
X176222482Y-99956908D01*
X176222483Y-99956908D01*
X176162883Y-99950501D01*
X176162881Y-99950500D01*
X176162873Y-99950500D01*
X176162864Y-99950500D01*
X174437129Y-99950500D01*
X174437123Y-99950501D01*
X174377516Y-99956908D01*
X174242671Y-100007202D01*
X174242664Y-100007206D01*
X174127455Y-100093452D01*
X174127452Y-100093455D01*
X174041206Y-100208664D01*
X174041202Y-100208671D01*
X173990908Y-100343517D01*
X173989300Y-100358478D01*
X173984501Y-100403123D01*
X173984500Y-100403135D01*
X173984500Y-101007200D01*
X173964815Y-101074239D01*
X173912011Y-101119994D01*
X173860500Y-101131200D01*
X172531797Y-101131200D01*
X172464758Y-101111515D01*
X172444116Y-101094881D01*
X171061500Y-99712265D01*
X171028015Y-99650942D01*
X171032999Y-99581250D01*
X171041789Y-99562592D01*
X171059577Y-99531784D01*
X171100501Y-99379057D01*
X171100501Y-99220942D01*
X171100501Y-99213347D01*
X171100500Y-99213329D01*
X171100500Y-98999499D01*
X171120185Y-98932460D01*
X171172989Y-98886705D01*
X171224500Y-98875499D01*
X171522871Y-98875499D01*
X171522872Y-98875499D01*
X171582483Y-98869091D01*
X171717331Y-98818796D01*
X171832546Y-98732546D01*
X171918796Y-98617331D01*
X171969091Y-98482483D01*
X171975500Y-98422873D01*
X171975499Y-96377128D01*
X171969091Y-96317517D01*
X171966553Y-96310713D01*
X171918797Y-96182671D01*
X171918793Y-96182664D01*
X171832547Y-96067455D01*
X171832544Y-96067452D01*
X171717335Y-95981206D01*
X171717328Y-95981202D01*
X171582482Y-95930908D01*
X171582483Y-95930908D01*
X171522883Y-95924501D01*
X171522881Y-95924500D01*
X171522873Y-95924500D01*
X171522864Y-95924500D01*
X169477129Y-95924500D01*
X169477123Y-95924501D01*
X169417516Y-95930908D01*
X169282671Y-95981202D01*
X169282664Y-95981206D01*
X169167455Y-96067452D01*
X169167452Y-96067455D01*
X169081206Y-96182664D01*
X169081202Y-96182671D01*
X169030908Y-96317517D01*
X169025356Y-96369163D01*
X169024501Y-96377123D01*
X169024500Y-96377135D01*
X169024500Y-96476295D01*
X169004815Y-96543334D01*
X168952011Y-96589089D01*
X168882853Y-96599033D01*
X168871995Y-96596974D01*
X168867486Y-96595909D01*
X168807883Y-96589501D01*
X168807881Y-96589500D01*
X168807873Y-96589500D01*
X168807864Y-96589500D01*
X167772129Y-96589500D01*
X167772123Y-96589501D01*
X167712516Y-96595908D01*
X167577671Y-96646202D01*
X167577667Y-96646204D01*
X167574306Y-96648721D01*
X167570375Y-96650186D01*
X167569886Y-96650454D01*
X167569847Y-96650383D01*
X167508840Y-96673134D01*
X167440568Y-96658279D01*
X167425694Y-96648721D01*
X167422332Y-96646205D01*
X167422331Y-96646204D01*
X167400202Y-96637950D01*
X167391164Y-96634579D01*
X167335231Y-96592706D01*
X167310816Y-96527241D01*
X167310500Y-96518398D01*
X167310500Y-96330946D01*
X167310500Y-96330943D01*
X167288678Y-96249500D01*
X167269577Y-96178215D01*
X167232791Y-96114500D01*
X167190520Y-96041284D01*
X167078716Y-95929480D01*
X167078715Y-95929479D01*
X167074385Y-95925149D01*
X167074374Y-95925139D01*
X166887590Y-95738355D01*
X166887588Y-95738352D01*
X166861417Y-95712181D01*
X166827932Y-95650858D01*
X166832916Y-95581166D01*
X166874788Y-95525233D01*
X166940252Y-95500816D01*
X166949098Y-95500500D01*
X177134108Y-95500500D01*
X183934108Y-95500500D01*
X187584998Y-95500500D01*
X187652037Y-95520185D01*
X187697792Y-95572989D01*
X187708997Y-95624495D01*
X187709239Y-103504966D01*
X187709481Y-111375496D01*
X187689798Y-111442536D01*
X187636996Y-111488293D01*
X187585481Y-111499500D01*
X150624500Y-111499500D01*
X150557461Y-111479815D01*
X150511706Y-111427011D01*
X150500500Y-111375500D01*
X150500500Y-95624500D01*
X150520185Y-95557461D01*
X150572989Y-95511706D01*
X150624500Y-95500500D01*
X161050902Y-95500500D01*
X161117941Y-95520185D01*
G37*
%TD.AperFunction*%
%TA.AperFunction,Conductor*%
G36*
X168266942Y-103120185D02*
G01*
X168287584Y-103136819D01*
X169721662Y-104570897D01*
X169755147Y-104632220D01*
X169750163Y-104701912D01*
X169721663Y-104746258D01*
X169670184Y-104797737D01*
X169574210Y-104950478D01*
X169514630Y-105120750D01*
X169504837Y-105207668D01*
X169477770Y-105272082D01*
X169469298Y-105281465D01*
X165787584Y-108963181D01*
X165726261Y-108996666D01*
X165699903Y-108999500D01*
X165477320Y-108999500D01*
X165410281Y-108979815D01*
X165378052Y-108949809D01*
X165372548Y-108942457D01*
X165372546Y-108942454D01*
X165371574Y-108941726D01*
X165257335Y-108856206D01*
X165257328Y-108856202D01*
X165122482Y-108805908D01*
X165122483Y-108805908D01*
X165062883Y-108799501D01*
X165062881Y-108799500D01*
X165062873Y-108799500D01*
X165062865Y-108799500D01*
X164589500Y-108799500D01*
X164522461Y-108779815D01*
X164476706Y-108727011D01*
X164465500Y-108675500D01*
X164465500Y-108409499D01*
X164485185Y-108342460D01*
X164537989Y-108296705D01*
X164589500Y-108285499D01*
X164637871Y-108285499D01*
X164637872Y-108285499D01*
X164697483Y-108279091D01*
X164832331Y-108228796D01*
X164947546Y-108142546D01*
X165033796Y-108027331D01*
X165084091Y-107892483D01*
X165090500Y-107832873D01*
X165090499Y-105647128D01*
X165084091Y-105587517D01*
X165074888Y-105562844D01*
X165735000Y-105562844D01*
X165741401Y-105622372D01*
X165741403Y-105622379D01*
X165791645Y-105757086D01*
X165791649Y-105757093D01*
X165877809Y-105872187D01*
X165877812Y-105872190D01*
X165992906Y-105958350D01*
X165992913Y-105958354D01*
X166127620Y-106008596D01*
X166127627Y-106008598D01*
X166187155Y-106014999D01*
X166187172Y-106015000D01*
X166450000Y-106015000D01*
X166950000Y-106015000D01*
X167212828Y-106015000D01*
X167212844Y-106014999D01*
X167272372Y-106008598D01*
X167272379Y-106008596D01*
X167407086Y-105958354D01*
X167407093Y-105958350D01*
X167522187Y-105872190D01*
X167522190Y-105872187D01*
X167608350Y-105757093D01*
X167608354Y-105757086D01*
X167658596Y-105622379D01*
X167658598Y-105622372D01*
X167664999Y-105562844D01*
X167665000Y-105562827D01*
X167665000Y-105370000D01*
X166950000Y-105370000D01*
X166950000Y-106015000D01*
X166450000Y-106015000D01*
X166450000Y-105370000D01*
X165735000Y-105370000D01*
X165735000Y-105562844D01*
X165074888Y-105562844D01*
X165074882Y-105562827D01*
X165033797Y-105452671D01*
X165033793Y-105452664D01*
X164947547Y-105337455D01*
X164947544Y-105337452D01*
X164832335Y-105251206D01*
X164832328Y-105251202D01*
X164697482Y-105200908D01*
X164697483Y-105200908D01*
X164637883Y-105194501D01*
X164637881Y-105194500D01*
X164637873Y-105194500D01*
X164637864Y-105194500D01*
X163102129Y-105194500D01*
X163102123Y-105194501D01*
X163042516Y-105200908D01*
X162907671Y-105251202D01*
X162907664Y-105251206D01*
X162792455Y-105337452D01*
X162792452Y-105337455D01*
X162700888Y-105459769D01*
X162698618Y-105458070D01*
X162659420Y-105497264D01*
X162591146Y-105512111D01*
X162525683Y-105487690D01*
X162500554Y-105458689D01*
X162499112Y-105459769D01*
X162407547Y-105337455D01*
X162407544Y-105337452D01*
X162292335Y-105251206D01*
X162292328Y-105251202D01*
X162157482Y-105200908D01*
X162157483Y-105200908D01*
X162097883Y-105194501D01*
X162097881Y-105194500D01*
X162097873Y-105194500D01*
X162097865Y-105194500D01*
X162054500Y-105194500D01*
X161987461Y-105174815D01*
X161941706Y-105122011D01*
X161930500Y-105070500D01*
X161930500Y-104470097D01*
X161950185Y-104403058D01*
X161966819Y-104382416D01*
X162212415Y-104136820D01*
X162273738Y-104103335D01*
X162300096Y-104100501D01*
X162379055Y-104100501D01*
X162379057Y-104100501D01*
X162429817Y-104086899D01*
X162437934Y-104084725D01*
X162470027Y-104080500D01*
X165701563Y-104080500D01*
X165768602Y-104100185D01*
X165800828Y-104130187D01*
X165872633Y-104226106D01*
X165897050Y-104291569D01*
X165882199Y-104359842D01*
X165872633Y-104374727D01*
X165791647Y-104482910D01*
X165791645Y-104482913D01*
X165741403Y-104617620D01*
X165741401Y-104617627D01*
X165735000Y-104677155D01*
X165735000Y-104870000D01*
X167665000Y-104870000D01*
X167665000Y-104677172D01*
X167664999Y-104677155D01*
X167658598Y-104617627D01*
X167658596Y-104617620D01*
X167608354Y-104482913D01*
X167608353Y-104482911D01*
X167527366Y-104374727D01*
X167502949Y-104309263D01*
X167517800Y-104240990D01*
X167527357Y-104226118D01*
X167608796Y-104117331D01*
X167659091Y-103982483D01*
X167665500Y-103922873D01*
X167665499Y-103224499D01*
X167685183Y-103157461D01*
X167737987Y-103111706D01*
X167789499Y-103100500D01*
X168199903Y-103100500D01*
X168266942Y-103120185D01*
G37*
%TD.AperFunction*%
%TA.AperFunction,Conductor*%
G36*
X165739540Y-96720185D02*
G01*
X165785295Y-96772989D01*
X165795239Y-96842147D01*
X165788683Y-96867833D01*
X165745908Y-96982517D01*
X165739501Y-97042116D01*
X165739500Y-97042135D01*
X165739500Y-98157870D01*
X165739501Y-98157876D01*
X165745908Y-98217483D01*
X165796202Y-98352328D01*
X165796206Y-98352335D01*
X165882452Y-98467544D01*
X165882455Y-98467547D01*
X165997664Y-98553793D01*
X165997671Y-98553797D01*
X166132517Y-98604091D01*
X166132516Y-98604091D01*
X166139444Y-98604835D01*
X166192127Y-98610500D01*
X167194287Y-98610499D01*
X167261326Y-98630183D01*
X167307081Y-98682987D01*
X167317025Y-98752146D01*
X167314062Y-98766591D01*
X167299499Y-98820940D01*
X167299499Y-98989046D01*
X167299500Y-98989059D01*
X167299500Y-99576000D01*
X167279815Y-99643039D01*
X167227011Y-99688794D01*
X167175500Y-99700000D01*
X166950000Y-99700000D01*
X166950000Y-101500000D01*
X167247828Y-101500000D01*
X167247836Y-101499999D01*
X167291815Y-101495270D01*
X167360575Y-101507673D01*
X167411714Y-101555282D01*
X167412462Y-101556560D01*
X167419479Y-101568715D01*
X167538583Y-101687819D01*
X167572068Y-101749142D01*
X167567084Y-101818834D01*
X167525212Y-101874767D01*
X167459748Y-101899184D01*
X167450902Y-101899500D01*
X165100097Y-101899500D01*
X165033058Y-101879815D01*
X165012416Y-101863181D01*
X164197079Y-101047844D01*
X165700000Y-101047844D01*
X165706401Y-101107372D01*
X165706403Y-101107379D01*
X165756645Y-101242086D01*
X165756649Y-101242093D01*
X165842809Y-101357187D01*
X165842812Y-101357190D01*
X165957906Y-101443350D01*
X165957913Y-101443354D01*
X166092620Y-101493596D01*
X166092627Y-101493598D01*
X166152155Y-101499999D01*
X166152172Y-101500000D01*
X166450000Y-101500000D01*
X166450000Y-100850000D01*
X165700000Y-100850000D01*
X165700000Y-101047844D01*
X164197079Y-101047844D01*
X164036915Y-100887680D01*
X164003430Y-100826357D01*
X164008414Y-100756665D01*
X164036911Y-100712322D01*
X164228506Y-100520727D01*
X164228511Y-100520724D01*
X164238714Y-100510520D01*
X164238716Y-100510520D01*
X164350520Y-100398716D01*
X164429577Y-100261784D01*
X164458952Y-100152155D01*
X165700000Y-100152155D01*
X165700000Y-100350000D01*
X166450000Y-100350000D01*
X166450000Y-99700000D01*
X166152155Y-99700000D01*
X166092627Y-99706401D01*
X166092620Y-99706403D01*
X165957913Y-99756645D01*
X165957906Y-99756649D01*
X165842812Y-99842809D01*
X165842809Y-99842812D01*
X165756649Y-99957906D01*
X165756645Y-99957913D01*
X165706403Y-100092620D01*
X165706401Y-100092627D01*
X165700000Y-100152155D01*
X164458952Y-100152155D01*
X164470500Y-100109057D01*
X164470500Y-99329499D01*
X164490185Y-99262460D01*
X164542989Y-99216705D01*
X164594500Y-99205499D01*
X164637871Y-99205499D01*
X164637872Y-99205499D01*
X164697483Y-99199091D01*
X164832331Y-99148796D01*
X164947546Y-99062546D01*
X165033796Y-98947331D01*
X165084091Y-98812483D01*
X165090500Y-98752873D01*
X165090499Y-96824499D01*
X165110184Y-96757461D01*
X165162987Y-96711706D01*
X165214499Y-96700500D01*
X165672501Y-96700500D01*
X165739540Y-96720185D01*
G37*
%TD.AperFunction*%
%TD*%
M02*
